<svg xmlns="http://www.w3.org/2000/svg" viewBox="0 0 1600 700" role="img" aria-labelledby="t d">
<title id="t">RAYA concept boat</title><desc id="d">A broad low-profile eagle-ray and saucer-inspired bay drifter with an open fishing cockpit and compact personal-watercraft propulsion core.</desc>
<defs><linearGradient id="bg" x1="0" y1="0" x2="1" y2="1"><stop stop-color="#071d22"/><stop offset="1" stop-color="#102f34"/></linearGradient><linearGradient id="hull" x1="0" y1="0" x2="1" y2="1"><stop stop-color="#d99a3d"/><stop offset=".52" stop-color="#7c532b"/><stop offset="1" stop-color="#30251c"/></linearGradient><filter id="glow"><feGaussianBlur stdDeviation="10" result="b"/><feMerge><feMergeNode in="b"/><feMergeNode in="SourceGraphic"/></feMerge></filter></defs>
<rect width="1600" height="700" fill="url(#bg)"/><path d="M0 565 C260 520 490 620 800 560 C1100 500 1330 520 1600 575 V700 H0Z" fill="#0a3e48"/><path d="M90 590 C360 540 540 650 820 585 C1110 520 1320 548 1510 605" fill="none" stroke="#2a6870" stroke-width="5" opacity=".6"/>
<g transform="translate(180 88)">
<path d="M80 320 C190 140 430 105 620 152 C790 82 1015 132 1170 320 C1045 348 945 392 848 452 C770 500 624 500 546 454 C438 393 323 350 80 320Z" fill="url(#hull)" stroke="#f0c06a" stroke-width="7"/>
<path d="M292 307 C398 235 486 211 612 227 C745 205 846 234 955 309 C887 338 826 377 772 411 C707 450 544 450 481 411 C424 374 361 338 292 307Z" fill="#102a2f" stroke="#c58b3b" stroke-width="4"/>
<ellipse cx="622" cy="302" rx="205" ry="96" fill="#08171b" stroke="#4e7071" stroke-width="4"/>
<rect x="526" y="250" width="192" height="88" rx="34" fill="#1e2829" stroke="#e0a748" stroke-width="4"/>
<path d="M578 244 L612 178 L651 178 L682 244" fill="#1c2526" stroke="#d99a3d" stroke-width="4"/>
<circle cx="598" cy="292" r="28" fill="#0c4249" stroke="#f0c06a" stroke-width="4"/><circle cx="665" cy="292" r="28" fill="#0c4249" stroke="#f0c06a" stroke-width="4"/>
<path d="M602 362 C613 410 613 445 596 477" fill="none" stroke="#f0c06a" stroke-width="6"/><path d="M664 362 C652 410 652 445 671 477" fill="none" stroke="#f0c06a" stroke-width="6"/>
<circle cx="597" cy="479" r="18" fill="#111" stroke="#e0a748" stroke-width="4"/><circle cx="671" cy="479" r="18" fill="#111" stroke="#e0a748" stroke-width="4"/>
<g fill="#f0c06a"><circle cx="353" cy="318" r="8"/><circle cx="397" cy="348" r="8"/><circle cx="873" cy="349" r="8"/><circle cx="914" cy="318" r="8"/></g>
<path d="M324 213 l-24 -92 M340 218 l13 -98 M930 215 l18 -94 M948 221 l-13 -98" stroke="#d8d0ba" stroke-width="5"/><path d="M300 121 l8 -18 M353 120 l-8 -18 M948 121 l8 -18 M935 123 l-8 -18" stroke="#d99a3d" stroke-width="4"/>
</g>
<g font-family="system-ui, sans-serif"><text x="95" y="90" fill="#f0c06a" font-size="26" font-weight="800" letter-spacing="5">RICHMOND RAY PROJECTS</text><text x="95" y="135" fill="#f6efe4" font-size="54" font-weight="900">RAYA — BAY DRIFTER CONCEPT</text><text x="95" y="176" fill="#9fb5b2" font-size="22">Eagle-ray stance · saucer stability · open 2–3 angler cockpit · jet-ski-derived propulsion core</text><text x="1290" y="628" fill="#f0c06a" font-size="18" font-weight="800">CONCEPT • NOT ENGINEERING DRAWING</text></g>
</svg>